<?xml version="1.0"?>
<svg xmlns="http://www.w3.org/2000/svg" xmlns:xlink="http://www.w3.org/1999/xlink" width="512px" height="512px" viewBox="0 0 53 56" version="1.1" class=""><g><defs class="active-path" style=""/><g id="Page-1" stroke="none" stroke-width="1" fill="none" fill-rule="evenodd"><g id="020---Family-Tree" fill="#000000" fill-rule="nonzero"><path d="M17.1,3.6 C16.7511513,4.31550953 16.6377345,5.12307913 16.776,5.907 C16.8586561,6.4375248 17.1805441,6.9006306 17.649,7.163 C18.636,7.622 20.044,6.758 20.728,5.284 C21.171,4.33 21.011,2.219 20.728,0.534 C19.255,1.406 17.54,2.646 17.1,3.6 Z" id="Shape" data-original="#000000" class="active-path" fill="#FFFFFF"/><path d="M31.275,0.533 C30.992,2.219 30.832,4.333 31.275,5.285 C31.96,6.758 33.366,7.624 34.354,7.163 C34.8224559,6.9006306 35.1443439,6.4375248 35.227,5.907 C35.3643376,5.12276317 35.2498686,4.31517898 34.9,3.6 C34.459,2.643 32.744,1.4 31.275,0.533 Z" id="Shape" data-original="#000000" class="active-path" fill="#FFFFFF"/><path d="M44.86,11.993 C45.6554344,12.0230972 46.4399586,11.8004478 47.101,11.357 C47.986,10.788 48.979,8.919 49.642,7.344 C49.427,7.337 49.206,7.334 48.982,7.334 C47.6005817,7.24115684 46.2163014,7.46696628 44.936,7.994 C43.569,8.874 42.91,10.388 43.496,11.3 C43.8197679,11.7286284 44.3229046,11.9842543 44.86,11.993 Z" id="Shape" data-original="#000000" class="active-path" fill="#FFFFFF"/><path d="M26,25.746 C24.54,26.763 22,29.005 22,31.276 C22,33.547 24.539,35.792 26,36.806 C27.46,35.789 30,33.546 30,31.276 C30,29.006 27.461,26.759 26,25.746 Z M27,34.276 L25,34.276 C24.4477153,34.276 24,33.8282847 24,33.276 C24,32.7237153 24.4477153,32.276 25,32.276 L27,32.276 C27.5522847,32.276 28,32.7237153 28,33.276 C28,33.8282847 27.5522847,34.276 27,34.276 Z M27,30.276 L25,30.276 C24.4477153,30.276 24,29.8282847 24,29.276 C24,28.7237153 24.4477153,28.276 25,28.276 L27,28.276 C27.5522847,28.276 28,28.7237153 28,29.276 C28,29.8282847 27.5522847,30.276 27,30.276 Z" id="Shape" data-original="#000000" class="active-path" fill="#FFFFFF"/><path d="M36.927,7.117 L36.97,7.148 C37.3225577,7.36254369 37.7456248,7.42904106 38.147,7.333 C39.0362575,7.10503305 39.8034315,6.54308352 40.289,5.764 C40.881,4.89 41.054,2.783 41.038,1.075 C39.484,1.695 37.632,2.63 37.01,3.487 L37,3.5 C37.3038571,4.40794418 37.3679284,5.37900329 37.186,6.319 C37.1256827,6.59275161 37.0389429,6.86000406 36.927,7.117 Z" id="Shape" data-original="#000000" class="active-path" fill="#FFFFFF"/><path d="M14.972,3.461 C14.363,2.624 12.515,1.694 10.962,1.075 C10.945,2.782 11.118,4.889 11.708,5.759 C12.1935621,6.54037592 12.9619463,7.1042159 13.853,7.333 C14.2587749,7.4295579 14.6862992,7.36046305 15.041,7.141 L15.073,7.117 C14.9616182,6.85928904 14.8755469,6.59136291 14.816,6.317 C14.6330943,5.37786253 14.6964849,4.40736557 15,3.5 C14.988804,3.48844393 14.9793696,3.47530316 14.972,3.461 Z" id="Shape" data-original="#000000" class="active-path" fill="#FFFFFF"/><path d="M51.08,29 L50.08,29 L50.08,51.99 C50.0816613,53.0968781 49.1868726,53.9961407 48.08,54 L26.08,54 C26.066,54 26.054,53.993 26.04,53.992 C26.026,53.991 26.014,54 26,54 L4,54 C2.89312737,53.9961407 1.99833874,53.0968781 2,51.99 L2,29 L1,29 C0.44771525,29 0,29.4477153 0,30 L0,55 C0,55.5522847 0.44771525,56 1,56 L24.5,56 C24.7981995,56.0015171 25.080866,55.867177 25.268,55.635 C25.289,55.608 25.321,55.596 25.344,55.572 C25.367,55.548 25.379,55.519 25.405,55.498 C25.4336925,55.4802561 25.4634113,55.4642281 25.494,55.45 C25.5501672,55.4107562 25.610135,55.3772547 25.673,55.35 C25.7306287,55.327045 25.7902009,55.3093072 25.851,55.297 C25.9758542,55.2729694 26.1041458,55.2729694 26.229,55.297 C26.2897991,55.3093072 26.3493713,55.327045 26.407,55.35 C26.469865,55.3772547 26.5298328,55.4107562 26.586,55.45 C26.6166954,55.4640144 26.6464274,55.4800496 26.675,55.498 C26.701,55.519 26.712,55.549 26.736,55.572 C26.76,55.595 26.791,55.608 26.812,55.635 C26.999134,55.867177 27.2818005,56.0015171 27.58,56 L51.08,56 C51.6322847,56 52.08,55.5522847 52.08,55 L52.08,30 C52.08,29.4477153 51.6322847,29 51.08,29 Z" id="Shape" data-original="#000000" class="active-path" fill="#FFFFFF"/><path d="M7.706,7.994 C6.821,7.424 4.706,7.294 3,7.344 C3.662,8.919 4.656,10.788 5.541,11.357 C6.907,12.237 8.558,12.211 9.146,11.299 C9.734,10.387 9.073,8.874 7.706,7.994 Z" id="Shape" data-original="#000000" class="active-path" fill="#FFFFFF"/><path d="M22.474,52 C17.8805118,49.3738936 12.2404882,49.3738936 7.647,52 L22.474,52 Z" id="Shape" data-original="#000000" class="active-path" fill="#FFFFFF"/><path d="M29.606,52 L44.436,52 C39.8416373,49.3731552 34.2003627,49.3731552 29.606,52 Z" id="Shape" data-original="#000000" class="active-path" fill="#FFFFFF"/><path d="M9.043,13.723 C8.57075455,13.899042 8.07098916,13.9897853 7.567,13.991 C7.18272537,13.9848433 6.80021342,13.937574 6.426,13.85 C5.47827685,14.9052536 4.70733656,16.1067453 4.143,17.408 C5.849,17.531 7.966,17.495 8.876,16.965 C9.67269483,16.5299382 10.2745611,15.8086995 10.56,14.947 C12.5760281,14.6990396 14.6221232,14.9391111 16.526,15.647 C16.5963413,15.6836096 16.6708943,15.711483 16.748,15.73 C17.9455513,16.1991024 19.0526351,16.8724204 20.02,17.72 C20.1601826,18.7952945 20.5357674,19.8264455 21.12,20.74 C21.8835926,21.9473264 22.8013263,23.0499514 23.85,24.02 L23.875,24.042 C21.9363717,22.9610354 19.7945816,22.2939819 17.585,22.083 C12,21.6 7.111,24.568 4,27.141 L4,28 L4,51.99 C10.812,46.79 18.615,46.745 26.04,51.821 C33.465,46.745 41.268,46.789 48.077,51.996 L48.077,27.16 C44.966,24.568 40.077,21.603 34.492,22.083 C32.2120234,22.3024507 30.0051713,23.0061341 28.019,24.147 L28.037,24.13 L28.047,24.12 C29.1238854,23.1288715 30.0683531,22.0029047 30.857,20.77 C31.4559125,19.8513459 31.8388369,18.8089028 31.977,17.721 C32.9469998,16.8694046 34.0574908,16.1926885 35.259,15.721 C35.3241966,15.7040911 35.3875181,15.6806387 35.448,15.651 C37.4909418,14.8820769 39.6975872,14.6526988 41.855,14.985 C41.9309142,14.9897699 42.0071266,14.9854053 42.082,14.972 C42.3783988,15.8206027 42.9791883,16.529007 43.768,16.96 C44.674,17.489 46.791,17.527 48.494,17.403 C47.9332948,16.1032517 47.1660543,14.90275 46.222,13.848 C45.8427363,13.9409483 45.4544038,13.9919211 45.064,14 C44.948,14 44.832,13.996 44.716,13.988 C43.9781611,13.9384754 43.2693001,13.6816216 42.671,13.247 C42.664,13.252 42.657,13.259 42.649,13.264 C42.509003,13.130822 42.3324897,13.0423913 42.142,13.01 C40.2434394,12.727323 38.3082075,12.8128806 36.442,13.262 C36.7878294,11.4910957 37.0408413,9.70332261 37.2,7.906 C37.247329,7.35597742 36.8399947,6.87165241 36.29,6.824 C36.0247507,6.79594234 35.7595118,6.87710186 35.5553801,7.04878379 C35.3512484,7.22046572 35.2258247,7.46786711 35.208,7.734 C35.0321588,9.84005394 34.7053184,11.9307633 34.23,13.99 C32.8033644,14.5831059 31.4961901,15.4301602 30.372,16.49 C29.548,17.028 27.353,18.274 26.004,18.274 L25.99,18.274 C24.659,18.266 22.521,17.053 21.664,16.515 C21.664,16.5123478 21.6629464,16.5098043 21.6610711,16.5079289 C21.6591957,16.5060536 21.6566522,16.505 21.654,16.505 C20.5260464,15.4381936 19.213314,14.5856291 17.78,13.989 C17.3038933,11.9301724 16.9763828,9.83978669 16.8,7.734 C16.7805382,7.46850909 16.6546594,7.2221364 16.4509301,7.05079295 C16.2472009,6.8794495 15.9828975,6.79766523 15.718,6.824 C15.1680053,6.87165241 14.760671,7.35597742 14.808,7.906 C14.9666302,9.70371441 15.219646,11.491848 15.566,13.263 C13.6998361,12.8136964 11.7646324,12.7278005 9.866,13.01 C9.47497578,13.0643758 9.15254119,13.3437146 9.043,13.723 Z M32,31.276 C32,34.313 29.3,36.82 27.682,38.046 C29.288,39.4 32,42.11 32,45 C32,45.5522847 31.5522847,46 31,46 C30.4477153,46 30,45.5522847 30,45 C30,42.892 27.488,40.443 26,39.254 C24.514,40.446 22,42.9 22,45 C22,45.5522847 21.5522847,46 21,46 C20.4477153,46 20,45.5522847 20,45 C20,42.11 22.712,39.4 24.318,38.046 C22.705,36.82 20,34.313 20,31.276 C20,28.218 22.742,25.698 24.351,24.476 C24.87,24.936 25.26,25.246 25.39,25.346 C25.7529245,25.612747 26.2470755,25.612747 26.61,25.346 C26.74,25.246 27.13,24.936 27.649,24.476 C29.258,25.7 32,28.218 32,31.276 Z M26,20.276 C26.0090997,20.2744786 26.0181124,20.2724758 26.027,20.27 C27.2044849,20.1874209 28.3524975,19.864085 29.4,19.32 L29.395,19.33 C28.6812065,20.5210482 27.8024996,21.6051235 26.785,22.55 C26.575,22.75 26.375,22.94 26.185,23.1 C26.125,23.16 26.065,23.21 26.005,23.26 C25.955,23.22 25.905,23.17 25.855,23.13 C25.625,22.93 25.375,22.7 25.125,22.45 C24.1477926,21.5339413 23.3060099,20.4833965 22.625,19.33 C23.6733428,19.8737649 24.8219397,20.1970736 26,20.28 L26,20.276 Z" id="Shape" data-original="#000000" class="active-path" fill="#FFFFFF"/></g></g></g> </svg>
