<svg width="512" height="512" viewBox="0 0 512 512" fill="none" xmlns="http://www.w3.org/2000/svg">
<path fill-rule="evenodd" clip-rule="evenodd" d="M26.4638 362.097C89.9179 408.697 176.975 400.533 231.012 346.415L210.198 330.854L274.501 321.518L283.797 385.821L264.397 371.312C202.559 424.176 110.207 429.754 41.8625 379.597C27.4742 368.967 14.8642 356.479 4.35583 342.494C11.0246 349.608 18.4208 356.155 26.4638 362.097Z" fill="white"/>
<path fill-rule="evenodd" clip-rule="evenodd" d="M181.543 163.893L299.276 251.032C278.825 247.434 253.403 239.23 227.213 230.864C183.402 216.879 137.165 202.168 106.489 206.897C93.4747 208.917 81.9559 215.869 74.1959 226.499C66.3147 237.249 63.1218 250.183 65.1022 263.318C67.1634 276.454 74.0747 287.851 84.8255 295.773C106.731 311.939 137.852 307.17 153.938 285.103L155.029 283.688C162.021 274.15 175.642 272.048 185.14 279.121L202.357 291.772C211.976 298.804 214.078 312.303 207.086 321.922L205.954 323.337C168.852 373.939 97.3143 384.972 46.5913 347.789C22.0584 329.723 5.93218 303.169 1.32468 273.139C-3.24241 243.069 4.07301 212.919 22.1393 188.345C40.1247 163.812 66.7188 147.727 96.7484 143.16C126.859 138.512 157.01 145.908 181.543 163.893ZM496.631 198.53C503.663 210.696 508.473 224.195 510.655 238.462C513.727 258.509 511.504 278.555 504.31 296.945C500.753 306.2 495.903 315.052 489.881 323.256C471.896 347.749 445.342 363.834 415.272 368.482C385.162 373.09 355.011 365.694 330.397 347.708L212.704 260.61C213.553 260.772 214.401 260.934 215.25 261.095C235.337 264.854 259.628 272.654 284.807 280.738C328.538 294.762 374.855 309.393 405.451 304.745C418.546 302.724 429.984 295.732 437.865 285.062C445.706 274.392 448.899 261.338 446.918 248.243C444.898 235.148 437.946 223.669 427.235 215.829C405.208 199.702 374.209 204.512 357.961 226.458L356.991 227.873C349.918 237.452 336.419 239.553 326.84 232.521L309.663 219.83C300.004 212.838 297.943 199.339 304.935 189.76L306.026 188.345C343.209 137.622 414.666 126.629 465.429 163.812C478.282 173.27 488.83 185.112 496.631 198.571V198.53Z" fill="url(#paint0_linear)"/>
<path fill-rule="evenodd" clip-rule="evenodd" d="M485.072 149.141C421.618 102.581 334.56 110.705 280.523 164.863L301.338 180.383L237.075 189.72L227.739 125.457L247.139 139.967C308.976 87.1017 401.328 81.4837 469.673 131.681C484.061 142.27 496.671 154.8 507.18 168.784C500.551 161.67 493.115 155.123 485.072 149.141Z" fill="#FF0000"/>
<defs>
<linearGradient id="paint0_linear" x1="255.439" y1="141.766" x2="256.568" y2="369.838" gradientUnits="userSpaceOnUse">
<stop stop-color="#0055FF"/>
<stop offset="1" stop-color="#001878"/>
</linearGradient>
</defs>
</svg>
